<svg width="39" height="39" viewBox="0 0 39 39" fill="none" xmlns="http://www.w3.org/2000/svg">
<path d="M32.5812 17.875H6.41875C5.56616 17.875 4.875 18.5662 4.875 19.4187V19.5813C4.875 20.4338 5.56616 21.125 6.41875 21.125H32.5812C33.4338 21.125 34.125 20.4338 34.125 19.5813V19.4187C34.125 18.5662 33.4338 17.875 32.5812 17.875Z" fill="white"/>
<path d="M32.5812 26H6.41875C5.56616 26 4.875 26.6912 4.875 27.5438V27.7062C4.875 28.5588 5.56616 29.25 6.41875 29.25H32.5812C33.4338 29.25 34.125 28.5588 34.125 27.7062V27.5438C34.125 26.6912 33.4338 26 32.5812 26Z" fill="white"/>
<path d="M32.5812 9.75H6.41875C5.56616 9.75 4.875 10.4412 4.875 11.2937V11.4563C4.875 12.3088 5.56616 13 6.41875 13H32.5812C33.4338 13 34.125 12.3088 34.125 11.4563V11.2937C34.125 10.4412 33.4338 9.75 32.5812 9.75Z" fill="white"/>
</svg>
