<svg width="22" height="21" viewBox="0 0 22 21" fill="none" xmlns="http://www.w3.org/2000/svg">
<path d="M20.7574 18.7013L16.8005 14.8875C18.0772 13.3153 18.7699 11.3737 18.7673 9.375C18.7673 7.59497 18.2213 5.85491 17.1982 4.37487C16.1752 2.89483 14.7211 1.74128 13.0199 1.06009C11.3186 0.3789 9.44663 0.20067 7.6406 0.547937C5.83457 0.895203 4.17562 1.75237 2.87355 3.01104C1.57147 4.26972 0.684748 5.87336 0.325506 7.61919C-0.0337354 9.36502 0.15064 11.1746 0.855318 12.8192C1.56 14.4637 2.75333 15.8693 4.2844 16.8582C5.81548 17.8472 7.61554 18.375 9.45696 18.375C11.5246 18.3775 13.5331 17.7079 15.1595 16.4738L19.1048 20.2988C19.213 20.4042 19.3417 20.4879 19.4835 20.545C19.6253 20.6021 19.7775 20.6315 19.9311 20.6315C20.0847 20.6315 20.2368 20.6021 20.3787 20.545C20.5205 20.4879 20.6492 20.4042 20.7574 20.2988C20.8665 20.1942 20.953 20.0697 21.0121 19.9327C21.0712 19.7956 21.1016 19.6485 21.1016 19.5C21.1016 19.3515 21.0712 19.2044 21.0121 19.0674C20.953 18.9303 20.8665 18.8058 20.7574 18.7013ZM2.4742 9.375C2.4742 8.03998 2.88373 6.73494 3.651 5.62491C4.41828 4.51487 5.50884 3.64971 6.78477 3.13882C8.0607 2.62793 9.4647 2.49425 10.8192 2.7547C12.1737 3.01515 13.418 3.65803 14.3945 4.60203C15.3711 5.54604 16.0361 6.74877 16.3055 8.05814C16.575 9.36752 16.4367 10.7247 15.9082 11.9581C15.3797 13.1915 14.4847 14.2457 13.3364 14.9874C12.1881 15.7291 10.838 16.125 9.45696 16.125C7.60501 16.125 5.82892 15.4138 4.5194 14.148C3.20988 12.8821 2.4742 11.1652 2.4742 9.375Z" fill="#8A8A8A"/>
</svg>
